<svg width="243" height="249" viewBox="0 0 243 249" fill="none" xmlns="http://www.w3.org/2000/svg">
<g opacity="0.8">
<path opacity="0.8" d="M65 170H218C224.63 170 230.989 172.634 235.678 177.322C240.366 182.011 243 188.37 243 195C243 201.63 240.366 207.989 235.678 212.678C230.989 217.366 224.63 220 218 220H65C58.3696 220 52.0107 217.366 47.3223 212.678C42.6339 207.989 40 201.63 40 195C40 188.37 42.6339 182.011 47.3223 177.322C52.0107 172.634 58.3696 170 65 170Z" fill="#FCF7EA"/>
<path opacity="0.8" d="M20 145H183C188.304 145 193.391 147.107 197.142 150.858C200.893 154.609 203 159.696 203 165C203 170.304 200.893 175.391 197.142 179.142C193.391 182.893 188.304 185 183 185H20C14.6957 185 9.60859 182.893 5.85786 179.142C2.10714 175.391 0 170.304 0 165C0 159.696 2.10714 154.609 5.85786 150.858C9.60859 147.107 14.6957 145 20 145Z" fill="#FCF7EA"/>
<path opacity="0.8" d="M20 205H183C188.304 205 193.391 207.107 197.142 210.858C200.893 214.609 203 219.696 203 225C203 227.626 202.483 230.227 201.478 232.654C200.473 235.08 198.999 237.285 197.142 239.142C195.285 240.999 193.08 242.472 190.654 243.478C188.227 244.483 185.626 245 183 245H20C17.3736 245 14.7728 244.483 12.3463 243.478C9.91982 242.472 7.71504 240.999 5.85786 239.142C4.00069 237.285 2.5275 235.08 1.52241 232.654C0.517313 230.227 0 227.626 0 225C0 219.696 2.10714 214.609 5.85786 210.858C9.60859 207.107 14.6957 205 20 205Z" fill="#FCF7EA"/>
</g>
<path d="M77.121 159.977L160.836 33.257L170.126 35.993L157.404 163.708L77.121 159.977Z" fill="url(#paint0_linear)"/>
<path d="M72.572 160.584H163.752L166.315 148.42C166.385 148.132 166.548 147.875 166.779 147.688C167.01 147.501 167.295 147.396 167.592 147.387H183.429C183.759 147.416 184.067 147.567 184.291 147.812C184.515 148.056 184.639 148.375 184.639 148.707C184.639 149.039 184.515 149.358 184.291 149.602C184.067 149.847 183.759 149.998 183.429 150.027H168.664L154.479 216.959C154.523 217.166 154.52 217.38 154.47 217.585C154.419 217.79 154.323 217.981 154.189 218.144C154.054 218.307 153.884 218.437 153.692 218.525C153.5 218.612 153.29 218.656 153.079 218.651H87.087C86.904 218.667 86.7197 218.645 86.5458 218.586C86.3718 218.526 86.2121 218.432 86.0767 218.308C85.9413 218.184 85.8331 218.033 85.7592 217.865C85.6852 217.696 85.647 217.515 85.647 217.331C85.647 217.147 85.6852 216.966 85.7592 216.797C85.8331 216.629 85.9413 216.478 86.0767 216.354C86.2121 216.23 86.3718 216.136 86.5458 216.076C86.7197 216.017 86.904 215.995 87.087 216.011H152.004L154.804 202.811H81.804C81.5078 202.802 81.2225 202.697 80.9918 202.511C80.761 202.325 80.5975 202.069 80.526 201.781L71.288 162.192C71.2576 162.013 71.2628 161.83 71.3034 161.653C71.3439 161.476 71.4189 161.308 71.5241 161.16C71.6293 161.012 71.7627 160.886 71.9166 160.79C72.0705 160.693 72.2419 160.628 72.421 160.598C72.471 160.59 72.5214 160.585 72.572 160.584Z" fill="#F0365A"/>
<path d="M133.276 200.175H155.382L159.011 183.019H133.28L133.276 200.175Z" fill="black"/>
<path d="M133.276 180.38H159.549L163.179 163.224H133.279L133.276 180.38Z" fill="black"/>
<path d="M130.638 183.019H106.883V200.175H130.638V183.019Z" fill="black"/>
<path d="M130.638 163.224H106.883V180.38H130.638V163.224Z" fill="black"/>
<path d="M82.837 200.175H104.237V183.019H78.837L82.837 200.175Z" fill="black"/>
<path d="M78.221 180.38H104.243V163.224H74.222L78.221 180.38Z" fill="black"/>
<path d="M138.553 223.928C140.641 223.928 142.682 224.546 144.418 225.706C146.154 226.865 147.508 228.514 148.307 230.442C149.107 232.371 149.316 234.494 148.91 236.541C148.503 238.589 147.498 240.471 146.022 241.947C144.547 243.424 142.666 244.43 140.618 244.838C138.571 245.246 136.448 245.038 134.519 244.24C132.59 243.442 130.94 242.089 129.78 240.354C128.619 238.618 127.999 236.578 127.998 234.49C128.001 231.691 129.114 229.008 131.093 227.028C133.071 225.048 135.754 223.933 138.553 223.928Z" fill="#F0365A"/>
<path d="M138.553 242.406C140.119 242.406 141.65 241.942 142.952 241.073C144.255 240.203 145.27 238.967 145.87 237.52C146.469 236.073 146.626 234.481 146.321 232.945C146.016 231.409 145.262 229.998 144.155 228.891C143.048 227.783 141.638 227.028 140.102 226.723C138.566 226.417 136.974 226.573 135.527 227.172C134.08 227.771 132.843 228.785 131.973 230.087C131.102 231.389 130.637 232.92 130.637 234.486C130.632 236.581 131.46 238.592 132.937 240.077C134.415 241.562 136.422 242.399 138.517 242.404L138.553 242.406Z" fill="black"/>
<path d="M101.604 223.928C103.692 223.928 105.733 224.547 107.468 225.707C109.204 226.867 110.557 228.516 111.356 230.445C112.155 232.373 112.364 234.496 111.957 236.543C111.55 238.591 110.545 240.472 109.069 241.948C107.593 243.425 105.713 244.431 103.665 244.839C101.618 245.246 99.4953 245.038 97.5662 244.24C95.6372 243.441 93.9881 242.089 92.8275 240.354C91.667 238.618 91.047 236.578 91.046 234.49C91.0455 233.103 91.3182 231.73 91.8485 230.448C92.3789 229.167 93.1565 228.003 94.1369 227.022C95.1174 226.041 96.2815 225.263 97.5627 224.732C98.8439 224.201 100.217 223.928 101.604 223.928Z" fill="#F0355A"/>
<path d="M101.604 242.404C105.977 242.404 109.522 238.859 109.522 234.486C109.522 230.113 105.977 226.568 101.604 226.568C97.231 226.568 93.686 230.113 93.686 234.486C93.686 238.859 97.231 242.404 101.604 242.404Z" fill="black"/>
<path d="M101.605 226.568C103.171 226.568 104.702 227.032 106.004 227.902C107.306 228.772 108.321 230.009 108.92 231.456C109.52 232.903 109.676 234.495 109.371 236.031C109.065 237.567 108.311 238.978 107.204 240.085C106.097 241.192 104.686 241.946 103.15 242.252C101.614 242.557 100.022 242.401 98.5749 241.801C97.1281 241.202 95.8915 240.187 95.0214 238.885C94.1514 237.583 93.687 236.052 93.687 234.486C93.687 233.446 93.8918 232.417 94.2897 231.456C94.6876 230.495 95.2709 229.622 96.0061 228.887C96.7414 228.152 97.6142 227.569 98.5749 227.171C99.5356 226.773 100.565 226.568 101.605 226.568Z" fill="#F7D7DD"/>
<path d="M130.638 234.486C130.643 236.58 131.479 238.585 132.962 240.063C134.446 241.54 136.454 242.369 138.548 242.366C140.641 242.363 142.648 241.53 144.128 240.049C145.607 238.567 146.438 236.56 146.438 234.466C146.438 232.373 145.607 230.365 144.128 228.883C142.648 227.402 140.641 226.569 138.548 226.566C136.454 226.563 134.446 227.392 132.962 228.869C131.479 230.347 130.643 232.353 130.638 234.446C130.637 234.459 130.637 234.473 130.638 234.486Z" fill="#F7D7DD"/>
<path d="M133.276 183.019V200.175H155.382L159.011 183.019H133.276Z" fill="#FAA2B3"/>
<path d="M130.638 183.019H106.883V200.175H130.638V183.019Z" fill="#FAA2B3"/>
<path d="M78.839 183.019L82.839 200.175H104.239V183.019H78.839Z" fill="#FAA2B3"/>
<path d="M74.222 163.224L78.222 180.38H104.243V163.224H74.222Z" fill="#FAA2B3"/>
<path d="M130.638 163.224H106.883V180.38H130.638V163.224Z" fill="#FAA2B3"/>
<path d="M133.276 163.224V180.38H159.549L163.179 163.224H133.276Z" fill="#FAA2B3"/>
<path d="M169.253 25.0195C164.23 23.291 158.97 22.3477 153.659 22.2228C149.733 22.2533 147.111 23.1257 146.645 24.5591C146.18 25.9924 147.787 28.2393 150.947 30.5702C159.82 36.4809 170.148 39.837 180.801 40.271C184.727 40.2415 187.349 39.3681 187.815 37.9357C188.28 36.5034 186.672 34.2555 183.513 31.9236C179.143 28.9028 174.333 26.574 169.253 25.0195ZM169.562 24.069C181.457 27.9328 190.054 34.2796 188.765 38.2444C187.477 42.2093 176.792 42.2896 164.897 38.4258C153.003 34.562 144.407 28.2142 145.695 24.2494C146.983 20.2845 157.668 20.2042 169.562 24.069Z" fill="#286FFF"/>
<path d="M156.322 23.6524C156.322 23.6524 143.128 22.5464 152.678 29.407C152.678 29.407 165.642 38.3127 182.272 38.5437C183.001 38.5582 183.728 38.4587 184.426 38.2486C186.353 37.6469 188.657 35.962 180.667 31.495" fill="#8DB0FC"/>
<path opacity="0.995" d="M155.685 24.8824C155.685 24.8824 160.002 14.3651 171.968 17.1256C174.527 17.6765 176.819 19.0909 178.46 21.1314C180.191 23.3568 181.585 26.8576 180.56 32.1035C180.475 32.5163 180.239 32.8827 179.899 33.131C179.558 33.3792 179.137 33.4914 178.718 33.4457C174.205 32.9853 160.755 31.1136 155.685 24.8824Z" fill="#6393F5"/>
<path d="M175.394 23.6633C175.394 23.6633 177.096 24.5093 177.015 29.7538L175.394 23.6633Z" fill="#ACD7D4"/>
<path d="M175.875 14.0098L176.584 12.0631C176.613 11.9844 176.626 11.9008 176.623 11.8171C176.619 11.7333 176.599 11.6512 176.564 11.5752C176.528 11.4992 176.478 11.4309 176.417 11.3743C176.355 11.3176 176.283 11.2736 176.204 11.2448C176.125 11.2161 176.042 11.2031 175.958 11.2067C175.874 11.2102 175.792 11.2302 175.716 11.2656C175.64 11.3009 175.572 11.3508 175.515 11.4125C175.459 11.4742 175.415 11.5465 175.386 11.6252L174.678 13.5719C174.649 13.6505 174.636 13.7341 174.64 13.8177C174.643 13.9014 174.663 13.9835 174.698 14.0594C174.734 14.1354 174.783 14.2036 174.845 14.2603C174.907 14.3169 174.979 14.3609 175.058 14.3897C175.136 14.4184 175.22 14.4314 175.303 14.4279C175.387 14.4243 175.469 14.4044 175.545 14.3691C175.621 14.3338 175.689 14.284 175.746 14.2223C175.803 14.1607 175.847 14.0885 175.875 14.0098Z" fill="#8EAEFC"/>
<path d="M178.807 18.3483C178.897 18.3735 178.991 18.3797 179.084 18.3666C179.176 18.3535 179.265 18.3213 179.344 18.2721L181.066 17.2696C181.209 17.1815 181.311 17.0403 181.351 16.8769C181.39 16.7135 181.364 16.5412 181.277 16.3974C181.24 16.3275 181.189 16.2657 181.128 16.2154C181.067 16.1651 180.997 16.1273 180.921 16.1043C180.845 16.0813 180.766 16.0734 180.687 16.0812C180.609 16.089 180.532 16.1123 180.463 16.1497L180.412 16.1804L178.688 17.185C178.548 17.2607 178.443 17.3886 178.397 17.541C178.35 17.6934 178.366 17.8579 178.44 17.9991C178.449 18.0166 178.459 18.0341 178.47 18.0496C178.545 18.1847 178.664 18.2901 178.807 18.3483Z" fill="#8EAEFC"/>
<path d="M169.643 15.0174C169.788 15.0648 169.944 15.0619 170.087 15.0092C170.241 14.9646 170.371 14.8607 170.449 14.7201C170.527 14.5795 170.545 14.4138 170.501 14.2595C170.495 14.2398 170.488 14.2211 170.48 14.2015L169.807 12.3341C169.785 12.2578 169.749 12.1864 169.699 12.1243C169.65 12.0621 169.588 12.0103 169.519 11.9718C169.449 11.9334 169.373 11.909 169.294 11.9C169.215 11.8911 169.135 11.8978 169.059 11.9197C169.039 11.9254 169.02 11.932 169.002 11.9398C168.842 11.9941 168.711 12.1091 168.636 12.2596C168.562 12.4102 168.549 12.5842 168.602 12.7438L169.277 14.617C169.307 14.7056 169.355 14.7871 169.418 14.856C169.481 14.925 169.558 14.98 169.643 15.0174Z" fill="#8EAEFC"/>
<g opacity="0.945">
<path opacity="0.945" d="M152.54 62.844C152.53 62.842 152.519 62.842 152.509 62.844L150.738 63.544C150.714 63.5533 150.693 63.5698 150.678 63.5912C150.664 63.6127 150.656 63.6381 150.656 63.664V66.072C150.656 66.0981 150.664 66.1236 150.678 66.1452C150.693 66.1668 150.714 66.1835 150.738 66.193L152.509 66.893C152.539 66.905 152.573 66.905 152.603 66.893L154.374 66.193C154.399 66.1836 154.42 66.1671 154.435 66.1455C154.45 66.124 154.459 66.0984 154.459 66.072V63.663C154.459 63.6372 154.451 63.612 154.436 63.5906C154.422 63.5692 154.401 63.5527 154.377 63.543L152.607 62.843C152.585 62.8368 152.562 62.8371 152.54 62.844ZM152.556 63.113L153.972 63.668L152.556 64.219L151.141 63.663L152.556 63.113ZM150.915 63.858L152.427 64.444V66.578L150.915 65.985V63.858ZM154.198 63.858V65.985L152.686 66.578V64.444L154.198 63.858Z" fill="#FAA2B3"/>
<path opacity="0.945" d="M130.925 138.512C130.913 138.474 130.896 138.438 130.875 138.404L127.213 132.404C127.162 132.322 127.088 132.258 126.999 132.219C126.911 132.181 126.814 132.169 126.719 132.187L117.959 133.738C117.864 133.754 117.776 133.798 117.706 133.865C117.637 133.932 117.589 134.018 117.569 134.112L116.179 140.997C116.155 141.115 116.177 141.238 116.24 141.341L119.905 147.333C119.956 147.415 120.03 147.48 120.118 147.518C120.206 147.557 120.304 147.569 120.399 147.551L129.157 146.004C129.252 145.988 129.34 145.944 129.409 145.877C129.479 145.81 129.526 145.724 129.546 145.63L130.937 138.748C130.952 138.67 130.948 138.589 130.925 138.512ZM129.959 138.744L128.851 144.244L125.921 139.453L127.034 133.948L129.959 138.744ZM126.198 133.255L125.01 139.133L117.259 140.502L118.442 134.625L126.198 133.255ZM128.306 145.19L120.553 146.56L117.425 141.444L125.176 140.074L128.306 145.19Z" fill="#FAA2B3"/>
<path opacity="0.945" d="M142.659 114.836C142.636 114.828 142.613 114.822 142.589 114.819L138.353 114.328C138.294 114.321 138.235 114.332 138.183 114.36C138.131 114.387 138.088 114.43 138.061 114.482L135.526 119.25C135.498 119.302 135.486 119.361 135.493 119.419C135.499 119.478 135.523 119.533 135.562 119.577L138.336 122.818C138.383 122.874 138.45 122.91 138.523 122.918L142.761 123.405C142.819 123.412 142.878 123.401 142.93 123.374C142.982 123.346 143.025 123.304 143.052 123.252L145.587 118.484C145.615 118.432 145.626 118.373 145.62 118.315C145.614 118.257 145.59 118.202 145.552 118.157L142.777 114.916C142.745 114.88 142.704 114.853 142.659 114.836ZM142.409 115.383L144.629 117.972L141.24 117.582L139.022 114.99L142.409 115.383ZM138.375 115.129L140.744 117.895L138.5 122.115L136.131 119.35L138.375 115.129ZM144.875 118.585L142.63 122.807L139.013 122.389L141.259 118.172L144.875 118.585Z" fill="#FAA2B3"/>
<path opacity="0.945" d="M142.534 89.066C142.519 89.0675 142.505 89.0713 142.491 89.077L140.042 90.038C140.009 90.0506 139.98 90.0731 139.96 90.1024C139.94 90.1317 139.929 90.1664 139.929 90.202V93.533C139.928 93.5693 139.939 93.6049 139.96 93.635C139.98 93.665 140.009 93.6881 140.043 93.701L142.492 94.666C142.534 94.682 142.581 94.682 142.623 94.666L145.072 93.705C145.106 93.6917 145.135 93.6686 145.155 93.6386C145.175 93.6086 145.186 93.5732 145.186 93.537V90.202C145.186 90.1658 145.175 90.1303 145.155 90.1003C145.135 90.0703 145.106 90.0472 145.072 90.034L142.622 89.073C142.594 89.0632 142.563 89.0608 142.534 89.066ZM142.556 89.437L144.514 90.204L142.557 90.966L140.599 90.2L142.556 89.437ZM140.287 90.466L142.377 91.287V94.232L140.287 93.413V90.466ZM144.826 90.466V93.412L142.736 94.231V91.284L144.826 90.466Z" fill="#FAA2B3"/>
</g>
<path d="M138.131 8.15C137.325 8.15 136.537 7.911 135.867 7.46324C135.197 7.01547 134.675 6.37905 134.366 5.63444C134.058 4.88983 133.977 4.07048 134.134 3.28001C134.292 2.48954 134.68 1.76344 135.25 1.19354C135.819 0.623638 136.546 0.235537 137.336 0.0783026C138.126 -0.0789322 138.946 0.00176334 139.69 0.31019C140.435 0.618618 141.071 1.14091 141.519 1.81104C141.967 2.48118 142.206 3.26905 142.206 4.07501C142.206 4.61018 142.101 5.14013 141.896 5.63459C141.691 6.12905 141.391 6.57833 141.013 6.95675C140.634 7.33518 140.185 7.63534 139.691 7.84008C139.196 8.04482 138.666 8.15014 138.131 8.15ZM138.131 1.611C137.478 1.6118 136.852 1.87151 136.39 2.33322C135.928 2.79492 135.668 3.42092 135.667 4.074C135.667 5.433 136.374 6.538 137.733 6.538C138.429 6.54973 139.105 6.3052 139.633 5.8509C140.161 5.3966 140.503 4.76421 140.595 4.074C140.594 3.42092 140.334 2.79492 139.872 2.33322C139.41 1.87151 138.784 1.6118 138.131 1.611Z" fill="#FAA3B3"/>
<path d="M188.295 88.836C187.489 88.836 186.701 88.597 186.031 88.1492C185.361 87.7014 184.839 87.065 184.53 86.3204C184.222 85.5758 184.141 84.7565 184.298 83.966C184.456 83.1755 184.844 82.4494 185.414 81.8795C185.983 81.3096 186.71 80.9215 187.5 80.7643C188.29 80.607 189.11 80.6877 189.854 80.9962C190.599 81.3046 191.235 81.8269 191.683 82.497C192.131 83.1671 192.37 83.955 192.37 84.761C192.37 85.2961 192.265 85.8261 192.06 86.3206C191.855 86.815 191.555 87.2643 191.177 87.6427C190.798 88.0211 190.349 88.3213 189.855 88.526C189.36 88.7308 188.83 88.8361 188.295 88.836ZM188.295 82.297C187.808 82.297 187.331 82.4415 186.926 82.7122C186.521 82.983 186.205 83.3678 186.019 83.818C185.832 84.2683 185.783 84.7637 185.878 85.2417C185.973 85.7196 186.208 86.1587 186.553 86.5033C186.897 86.8479 187.336 87.0825 187.814 87.1776C188.292 87.2727 188.788 87.2239 189.238 87.0374C189.688 86.8509 190.073 86.5351 190.344 86.1299C190.614 85.7247 190.759 85.2483 190.759 84.761C190.758 84.1078 190.498 83.4817 190.036 83.0198C189.574 82.558 188.948 82.298 188.295 82.297Z" fill="#68ECB3"/>
<path d="M114.101 45.662H112.62V44.181C112.62 43.9038 112.51 43.638 112.314 43.4421C112.118 43.2461 111.852 43.136 111.575 43.136C111.298 43.136 111.032 43.2461 110.836 43.4421C110.64 43.638 110.53 43.9038 110.53 44.181V45.662H109.045C108.768 45.662 108.502 45.7721 108.306 45.9681C108.11 46.164 108 46.4298 108 46.707C108 46.9841 108.11 47.2499 108.306 47.4459C108.502 47.6419 108.768 47.752 109.045 47.752H110.526V49.232C110.526 49.5091 110.636 49.7749 110.832 49.9709C111.028 50.1669 111.294 50.277 111.571 50.277C111.848 50.277 112.114 50.1669 112.31 49.9709C112.506 49.7749 112.616 49.5091 112.616 49.232V47.748H114.097C114.374 47.748 114.64 47.6379 114.836 47.4419C115.032 47.2459 115.142 46.9801 115.142 46.703C115.142 46.4258 115.032 46.16 114.836 45.9641C114.64 45.7681 114.374 45.658 114.097 45.658L114.101 45.662Z" fill="#FFCF68"/>
<path d="M200.85 7.424H199.37V5.94299C199.362 5.67131 199.248 5.41356 199.053 5.22435C198.857 5.03514 198.596 4.92932 198.324 4.92932C198.053 4.92932 197.792 5.03514 197.596 5.22435C197.401 5.41356 197.287 5.67131 197.279 5.94299V7.424H195.799C195.522 7.424 195.256 7.53408 195.06 7.73006C194.864 7.92603 194.754 8.19184 194.754 8.46899C194.754 8.74615 194.864 9.01194 195.06 9.20792C195.256 9.40389 195.522 9.51399 195.799 9.51399H197.279V10.993C197.275 11.133 197.298 11.2725 197.349 11.4031C197.4 11.5337 197.476 11.6529 197.574 11.7534C197.671 11.854 197.788 11.934 197.917 11.9886C198.046 12.0432 198.184 12.0713 198.324 12.0713C198.465 12.0713 198.603 12.0432 198.732 11.9886C198.861 11.934 198.978 11.854 199.075 11.7534C199.173 11.6529 199.249 11.5337 199.3 11.4031C199.35 11.2725 199.374 11.133 199.37 10.993V9.51199H200.85C201.127 9.51199 201.393 9.40189 201.589 9.20592C201.785 9.00994 201.895 8.74415 201.895 8.467C201.895 8.18984 201.785 7.92403 201.589 7.72806C201.393 7.53208 201.127 7.422 200.85 7.422V7.424Z" fill="#6393F5"/>
<path d="M204.481 245H186.16C185.745 245 185.346 245.165 185.053 245.459C184.759 245.752 184.594 246.151 184.594 246.566C184.594 246.981 184.759 247.38 185.053 247.673C185.346 247.967 185.745 248.132 186.16 248.132H204.481C204.896 248.132 205.295 247.967 205.588 247.673C205.882 247.38 206.047 246.981 206.047 246.566C206.047 246.151 205.882 245.752 205.588 245.459C205.295 245.165 204.896 245 204.481 245Z" fill="#F0EAD9"/>
<path d="M34.886 245H16.566C16.1507 245 15.7524 245.165 15.4587 245.459C15.165 245.752 15 246.151 15 246.566C15 246.981 15.165 247.38 15.4587 247.673C15.7524 247.967 16.1507 248.132 16.566 248.132H34.886C35.3013 248.132 35.6996 247.967 35.9933 247.673C36.287 247.38 36.452 246.981 36.452 246.566C36.452 246.151 36.287 245.752 35.9933 245.459C35.6996 245.165 35.3013 245 34.886 245Z" fill="#F0EAD9"/>
<path d="M178.699 245H42.347C41.9317 245 41.5334 245.165 41.2397 245.459C40.946 245.752 40.781 246.151 40.781 246.566C40.781 246.981 40.946 247.38 41.2397 247.673C41.5334 247.967 41.9317 248.132 42.347 248.132H178.699C179.114 248.132 179.513 247.967 179.806 247.673C180.1 247.38 180.265 246.981 180.265 246.566C180.265 246.151 180.1 245.752 179.806 245.459C179.513 245.165 179.114 245 178.699 245Z" fill="#F0EAD9"/>
<defs>
<linearGradient id="paint0_linear" x1="163.895" y1="43.1713" x2="83.789" y2="139.469" gradientUnits="userSpaceOnUse">
<stop stop-color="#FFC344"/>
<stop offset="1" stop-color="#FFD479" stop-opacity="0.169"/>
</linearGradient>
</defs>
</svg>
