<svg width="243" height="202" viewBox="0 0 243 202" fill="none" xmlns="http://www.w3.org/2000/svg">
<g opacity="0.8">
<path opacity="0.8" d="M65 124.315H218C224.63 124.315 230.989 126.949 235.678 131.637C240.366 136.326 243 142.685 243 149.315C243 155.945 240.366 162.304 235.678 166.993C230.989 171.681 224.63 174.315 218 174.315H65C58.3696 174.315 52.0107 171.681 47.3223 166.993C42.6339 162.304 40 155.945 40 149.315C40 142.685 42.6339 136.326 47.3223 131.637C52.0107 126.949 58.3696 124.315 65 124.315Z" fill="#FCF7EA"/>
<path opacity="0.8" d="M20 99.315H183C188.304 99.315 193.391 101.422 197.142 105.173C200.893 108.924 203 114.011 203 119.315C203 124.619 200.893 129.706 197.142 133.457C193.391 137.208 188.304 139.315 183 139.315H20C14.6957 139.315 9.60859 137.208 5.85786 133.457C2.10714 129.706 0 124.619 0 119.315C0 114.011 2.10714 108.924 5.85786 105.173C9.60859 101.422 14.6957 99.315 20 99.315Z" fill="#FCF7EA"/>
<path opacity="0.8" d="M20 159.315H183C188.304 159.315 193.391 161.422 197.142 165.173C200.893 168.924 203 174.011 203 179.315C203 181.941 202.483 184.542 201.478 186.969C200.473 189.395 198.999 191.6 197.142 193.457C195.285 195.314 193.08 196.787 190.654 197.793C188.227 198.798 185.626 199.315 183 199.315H20C17.3736 199.315 14.7728 198.798 12.3463 197.793C9.91982 196.787 7.71504 195.314 5.85786 193.457C4.00069 191.6 2.5275 189.395 1.52241 186.969C0.517313 184.542 0 181.941 0 179.315C0 174.011 2.10714 168.924 5.85786 165.173C9.60859 161.422 14.6957 159.315 20 159.315Z" fill="#FCF7EA"/>
</g>
<path d="M54.137 199.831C56.221 201.022 63.69 201.022 66.561 201.022C67.541 201.022 68.541 201.016 69.546 201.005C68.0596 196.972 66.876 192.834 66.005 188.625L62.94 186.608C62.8836 186.571 62.8351 186.523 62.7972 186.467C62.7593 186.411 62.7328 186.348 62.7192 186.282C62.7056 186.216 62.7051 186.148 62.7179 186.081C62.7306 186.015 62.7563 185.952 62.7935 185.896C62.8307 185.839 62.8786 185.791 62.9345 185.753C62.9904 185.715 63.0532 185.688 63.1194 185.675C63.1856 185.661 63.2538 185.661 63.3201 185.673C63.3864 185.686 63.4496 185.712 63.506 185.749L65.716 187.204C65.165 184.388 64.937 182.557 64.931 182.517C64.9183 182.383 64.9583 182.25 65.0424 182.146C65.1265 182.041 65.248 181.974 65.3812 181.957C65.5143 181.941 65.6486 181.977 65.7554 182.059C65.8622 182.14 65.9331 182.259 65.953 182.392C66.6677 187.442 67.8009 192.423 69.341 197.285L71.072 195.034C71.156 194.928 71.2782 194.86 71.4124 194.843C71.5465 194.827 71.6817 194.863 71.7889 194.946C71.8961 195.028 71.9667 195.149 71.9854 195.283C72.0041 195.417 71.9695 195.552 71.889 195.661L69.731 198.461C70.0163 199.301 70.3203 200.143 70.643 200.988L73.113 200.956C75.243 200.926 77.253 200.899 79.14 200.899C80.288 200.899 81.277 200.91 82.155 200.931C83.455 200.963 84.726 200.992 85.955 201.015C87.264 199.315 89.823 195.115 89.848 195.074C89.8832 195.016 89.9294 194.966 89.984 194.926C90.0387 194.886 90.1006 194.857 90.1664 194.841C90.2321 194.825 90.3004 194.823 90.3672 194.833C90.4341 194.843 90.4982 194.867 90.556 194.902C90.6138 194.937 90.6641 194.983 90.704 195.038C90.7439 195.093 90.7726 195.155 90.7886 195.22C90.8046 195.286 90.8075 195.354 90.7971 195.421C90.7867 195.488 90.7632 195.552 90.728 195.61C90.677 195.69 90.128 196.587 89.428 197.704H91.191C91.3276 197.704 91.4586 197.758 91.5551 197.855C91.6517 197.951 91.706 198.082 91.706 198.219C91.706 198.356 91.6517 198.487 91.5551 198.583C91.4586 198.68 91.3276 198.734 91.191 198.734H88.773C88.252 199.543 87.7 200.37 87.225 201.034C88.196 201.049 89.131 201.057 90.016 201.057C96.749 201.057 97.781 200.483 97.897 200.219C97.87 200.103 95.07 188.611 87.092 188.611C85.0776 188.681 83.1123 189.251 81.373 190.27C81.3009 190.31 81.2202 190.333 81.1377 190.335C81.0552 190.338 80.9732 190.32 80.8988 190.285C80.8243 190.249 80.7595 190.196 80.7098 190.13C80.66 190.064 80.6269 189.987 80.613 189.906C79.433 182.206 72.713 175.453 66.223 175.453C65.0159 175.451 63.8213 175.698 62.7133 176.177C61.6053 176.656 60.6076 177.357 59.782 178.238C57.135 180.917 54.018 186.838 54.132 199.831H54.137Z" fill="#8CB1FC"/>
<path d="M90.012 201.202C93.479 201.202 97.682 201.042 98.017 200.284C98.0289 200.258 98.0317 200.228 98.025 200.2C97.998 200.082 95.164 188.489 87.089 188.489C85.0523 188.558 83.0648 189.133 81.306 190.162C81.2526 190.19 81.1932 190.206 81.1327 190.207C81.0722 190.208 81.0124 190.195 80.958 190.168C80.9032 190.141 80.8557 190.101 80.8197 190.052C80.7836 190.003 80.7601 189.945 80.751 189.885C79.562 182.127 72.774 175.32 66.225 175.32C64.9997 175.318 63.7869 175.567 62.6621 176.053C61.5372 176.539 60.5242 177.251 59.686 178.145C57.028 180.837 53.886 186.782 54 199.833C54.0003 199.857 54.0067 199.88 54.0187 199.9C54.0306 199.92 54.0476 199.937 54.068 199.949C56.186 201.162 63.725 201.162 66.563 201.162C67.543 201.162 68.543 201.156 69.55 201.145C69.5718 201.145 69.5932 201.139 69.6124 201.129C69.6316 201.118 69.648 201.104 69.6602 201.085C69.6725 201.067 69.6802 201.047 69.6828 201.025C69.6854 201.003 69.6827 200.981 69.675 200.961C68.1942 196.933 67.0123 192.802 66.139 188.6C66.1356 188.583 66.1287 188.567 66.119 188.552C66.1092 188.538 66.0966 188.526 66.082 188.516L63.017 186.5C62.933 186.445 62.8744 186.358 62.8542 186.259C62.8339 186.161 62.8536 186.058 62.909 185.974C62.9658 185.892 63.0523 185.834 63.1503 185.814C63.2483 185.794 63.3503 185.813 63.435 185.866L65.645 187.321C65.6673 187.335 65.6934 187.343 65.72 187.343C65.7466 187.343 65.7727 187.335 65.795 187.321C65.8168 187.306 65.8339 187.285 65.844 187.261C65.8541 187.237 65.8569 187.21 65.852 187.184C65.322 184.475 65.094 182.7 65.069 182.508C65.0568 182.408 65.0848 182.307 65.1469 182.228C65.2089 182.148 65.2999 182.097 65.4 182.084C65.4496 182.077 65.5003 182.079 65.5488 182.092C65.5974 182.105 65.6428 182.128 65.6823 182.159C65.7218 182.19 65.7546 182.228 65.7786 182.272C65.8026 182.317 65.8174 182.365 65.822 182.415C66.5387 187.473 67.6743 192.463 69.217 197.333C69.2248 197.357 69.2387 197.378 69.2573 197.394C69.276 197.41 69.2986 197.421 69.323 197.426C69.3474 197.431 69.3727 197.428 69.3958 197.419C69.419 197.41 69.4392 197.395 69.454 197.375L71.185 195.124C71.2477 195.046 71.3379 194.996 71.437 194.983C71.536 194.97 71.6363 194.995 71.717 195.054C71.7962 195.116 71.848 195.206 71.8611 195.306C71.8742 195.405 71.8476 195.506 71.787 195.586L69.629 198.386C69.6154 198.403 69.6063 198.424 69.6026 198.446C69.599 198.468 69.6008 198.49 69.608 198.511C69.899 199.37 70.208 200.221 70.52 201.044C70.5301 201.069 70.5476 201.091 70.5702 201.107C70.5929 201.122 70.6196 201.131 70.647 201.131L73.117 201.099C75.135 201.072 77.223 201.042 79.142 201.042C80.282 201.042 81.268 201.053 82.155 201.074C83.455 201.106 84.726 201.135 85.955 201.158C85.9763 201.159 85.9976 201.155 86.0168 201.146C86.0361 201.136 86.0527 201.122 86.065 201.105C87.38 199.397 89.943 195.192 89.965 195.151C90.0188 195.067 90.103 195.007 90.2 194.983C90.2971 194.959 90.3995 194.974 90.486 195.024C90.5287 195.05 90.5658 195.084 90.5953 195.124C90.6248 195.164 90.6461 195.21 90.6579 195.258C90.6697 195.307 90.6718 195.357 90.6641 195.406C90.6564 195.455 90.639 195.503 90.613 195.545C90.531 195.68 89.997 196.554 89.313 197.637C89.3012 197.658 89.2949 197.682 89.2949 197.706C89.2949 197.73 89.3012 197.753 89.313 197.774C89.3248 197.795 89.3419 197.813 89.3626 197.825C89.3833 197.837 89.4069 197.844 89.431 197.844H91.194C91.2948 197.844 91.3914 197.884 91.4627 197.955C91.534 198.027 91.574 198.123 91.574 198.224C91.574 198.325 91.534 198.421 91.4627 198.493C91.3914 198.564 91.2948 198.604 91.194 198.604H88.774C88.7514 198.604 88.7292 198.61 88.7093 198.62C88.6895 198.631 88.6725 198.646 88.66 198.665C88.054 199.602 87.533 200.377 87.115 200.965C87.1008 200.985 87.0923 201.009 87.0905 201.033C87.0887 201.058 87.0937 201.082 87.1048 201.104C87.1159 201.126 87.1328 201.144 87.1536 201.158C87.1744 201.171 87.1984 201.178 87.223 201.178C88.19 201.191 89.123 201.199 90.012 201.199V201.202ZM97.747 200.202C97.597 200.379 96.599 200.928 90.01 200.928C89.21 200.928 88.357 200.922 87.479 200.909C87.863 200.362 88.319 199.68 88.843 198.872H91.191C91.2764 198.872 91.3609 198.855 91.4397 198.823C91.5186 198.79 91.5903 198.742 91.6506 198.682C91.711 198.621 91.7589 198.55 91.7915 198.471C91.8242 198.392 91.841 198.307 91.841 198.222C91.841 198.137 91.8242 198.052 91.7915 197.973C91.7589 197.894 91.711 197.823 91.6506 197.762C91.5903 197.702 91.5186 197.654 91.4397 197.622C91.3609 197.589 91.2764 197.572 91.191 197.572H89.672C90.295 196.586 90.772 195.809 90.84 195.693C90.9313 195.546 90.9603 195.368 90.9207 195.199C90.8812 195.031 90.7762 194.884 90.629 194.793C90.4808 194.707 90.3053 194.682 90.139 194.722C89.9726 194.763 89.8283 194.866 89.736 195.01C89.711 195.05 87.211 199.156 85.891 200.885C84.681 200.862 83.431 200.832 82.158 200.803C81.269 200.782 80.281 200.771 79.139 200.771C77.218 200.771 75.13 200.801 73.11 200.828L70.735 200.862C70.442 200.094 70.157 199.298 69.882 198.495L71.997 195.748C72.1013 195.611 72.1474 195.439 72.1254 195.268C72.1033 195.097 72.0147 194.942 71.879 194.836C71.741 194.734 71.5692 194.69 71.3993 194.712C71.2294 194.734 71.0745 194.821 70.967 194.954L69.392 197C67.8951 192.224 66.7895 187.334 66.086 182.378C66.0614 182.21 65.9721 182.058 65.8371 181.955C65.7022 181.852 65.5323 181.806 65.3638 181.827C65.1953 181.848 65.0416 181.933 64.9355 182.066C64.8294 182.198 64.7793 182.367 64.796 182.536C64.819 182.726 65.032 184.379 65.522 186.919L63.58 185.642C63.4349 185.551 63.2603 185.52 63.0926 185.554C62.9249 185.589 62.7771 185.687 62.68 185.828C62.5856 185.972 62.5522 186.148 62.5871 186.316C62.6219 186.485 62.7222 186.633 62.866 186.728L65.885 188.713C66.7469 192.846 67.9056 196.912 69.352 200.878C68.413 200.886 67.477 200.893 66.561 200.893C63.772 200.893 56.416 200.893 54.272 199.755C54.172 186.855 57.264 180.986 59.882 178.337C60.6943 177.468 61.6765 176.776 62.7677 176.303C63.8589 175.83 65.0357 175.587 66.225 175.588C72.65 175.588 79.31 182.288 80.482 189.927C80.4975 190.03 80.5376 190.128 80.5988 190.212C80.6601 190.296 80.7408 190.364 80.834 190.411C80.9272 190.457 81.0302 190.48 81.1343 190.478C81.2384 190.477 81.3405 190.45 81.432 190.4C83.1514 189.39 85.0953 188.825 87.088 188.755C94.676 188.755 97.532 199.355 97.748 200.204L97.747 200.202Z" fill="#8CB1FC"/>
<path d="M147.911 18.8438C147.164 18.5419 146.523 18.0252 146.069 17.359C145.615 16.6928 145.37 15.907 145.363 15.1011C145.356 14.2952 145.588 13.5053 146.03 12.8312C146.471 12.1572 147.103 11.6294 147.845 11.3145C148.587 10.9996 149.406 10.9117 150.198 11.0621C150.989 11.2124 151.719 11.5941 152.294 12.159C152.869 12.7239 153.263 13.4466 153.427 14.2357C153.591 15.0248 153.518 15.8448 153.216 16.5921C153.015 17.0883 152.719 17.5402 152.344 17.922C151.969 18.3038 151.522 18.6079 151.03 18.817C150.537 19.0261 150.008 19.1361 149.473 19.1407C148.938 19.1453 148.407 19.0444 147.911 18.8438ZM150.36 12.781C149.755 12.5371 149.077 12.5433 148.476 12.7984C147.874 13.0534 147.399 13.5365 147.153 14.1416C146.644 15.4016 146.886 16.691 148.146 17.2001C148.787 17.4718 149.505 17.4984 150.165 17.2748C150.824 17.0513 151.379 16.5932 151.722 15.9876C151.966 15.3817 151.96 14.7039 151.704 14.1028C151.449 13.5017 150.966 13.0263 150.36 12.781Z" fill="#FAA3B3"/>
<path d="M164.197 112.446C163.449 112.144 162.808 111.628 162.355 110.962C161.901 110.295 161.655 109.51 161.648 108.704C161.641 107.898 161.873 107.108 162.315 106.434C162.757 105.76 163.389 105.232 164.131 104.917C164.873 104.602 165.691 104.514 166.483 104.665C167.275 104.815 168.005 105.197 168.579 105.762C169.154 106.326 169.549 107.049 169.713 107.838C169.877 108.627 169.803 109.447 169.501 110.195C169.301 110.691 169.005 111.143 168.63 111.525C168.255 111.906 167.808 112.21 167.316 112.42C166.823 112.629 166.294 112.739 165.759 112.743C165.224 112.748 164.693 112.647 164.197 112.446ZM166.646 106.384C166.194 106.201 165.699 106.156 165.221 106.256C164.744 106.355 164.307 106.593 163.966 106.941C163.624 107.289 163.393 107.73 163.302 108.208C163.212 108.687 163.265 109.182 163.455 109.631C163.645 110.079 163.965 110.461 164.372 110.729C164.78 110.996 165.257 111.136 165.745 111.132C166.232 111.128 166.707 110.979 167.11 110.705C167.513 110.431 167.825 110.043 168.008 109.591C168.251 108.985 168.245 108.307 167.99 107.706C167.735 107.105 167.251 106.629 166.646 106.384Z" fill="#68ECB3"/>
<path d="M111.578 44.6225L110.205 44.0677L110.76 42.6946C110.864 42.4376 110.861 42.1499 110.753 41.8948C110.645 41.6397 110.44 41.438 110.183 41.3342C109.926 41.2304 109.638 41.2329 109.383 41.3412C109.128 41.4495 108.926 41.6547 108.822 41.9117L108.267 43.2848L106.891 42.7285C106.634 42.6247 106.346 42.6272 106.091 42.7355C105.836 42.8438 105.634 43.049 105.53 43.306C105.426 43.5629 105.429 43.8506 105.537 44.1058C105.646 44.3609 105.851 44.5625 106.108 44.6663L107.481 45.2211L106.926 46.5934C106.823 46.8503 106.825 47.138 106.933 47.3931C107.042 47.6483 107.247 47.8499 107.504 47.9537C107.761 48.0576 108.049 48.0551 108.304 47.9468C108.559 47.8385 108.76 47.6333 108.864 47.3763L109.42 46.0004L110.793 46.5551C111.05 46.659 111.338 46.6565 111.593 46.5482C111.848 46.4399 112.05 46.2347 112.154 45.9777C112.258 45.7207 112.255 45.4331 112.147 45.1779C112.038 44.9228 111.833 44.7212 111.576 44.6173L111.578 44.6225Z" fill="#FFCF68"/>
<path d="M206.335 41.6657L204.963 41.1112L205.517 39.7381C205.611 39.483 205.602 39.2014 205.492 38.9529C205.382 38.7043 205.18 38.5084 204.928 38.4066C204.676 38.3047 204.394 38.305 204.142 38.4073C203.89 38.5097 203.688 38.706 203.579 38.9548L203.024 40.3279L201.652 39.7735C201.395 39.6697 201.107 39.6722 200.852 39.7805C200.597 39.8888 200.395 40.094 200.291 40.351C200.188 40.6079 200.19 40.8956 200.298 41.1507C200.407 41.4058 200.612 41.6075 200.869 41.7113L202.241 42.2657L201.687 43.6371C201.631 43.7653 201.6 43.9035 201.598 44.0435C201.596 44.1836 201.622 44.3227 201.675 44.4524C201.728 44.5822 201.806 44.7001 201.905 44.7991C202.004 44.898 202.123 44.976 202.252 45.0285C202.382 45.081 202.521 45.1068 202.661 45.1045C202.802 45.1022 202.94 45.0718 203.068 45.0151C203.196 44.9584 203.311 44.8765 203.407 44.7743C203.503 44.6722 203.577 44.5518 203.626 44.4204L204.181 43.0472L205.553 43.6016C205.81 43.7054 206.097 43.7029 206.353 43.5946C206.608 43.4863 206.809 43.2811 206.913 43.0242C207.017 42.7672 207.014 42.4795 206.906 42.2244C206.798 41.9693 206.593 41.7676 206.336 41.6638L206.335 41.6657Z" fill="#6393F5"/>
<path d="M83 110.815C83 110.539 82.7761 110.315 82.5 110.315C82.2239 110.315 82 110.539 82 110.815V114.815C82 115.091 82.2239 115.315 82.5 115.315C82.7761 115.315 83 115.091 83 114.815V110.815Z" fill="white"/>
<path d="M85 112.815C85 112.539 84.7761 112.315 84.5 112.315C84.2239 112.315 84 112.539 84 112.815V116.815C84 117.091 84.2239 117.315 84.5 117.315C84.7761 117.315 85 117.091 85 116.815V112.815Z" fill="white"/>
<path d="M87 110.815C87 110.539 86.7761 110.315 86.5 110.315C86.2239 110.315 86 110.539 86 110.815V114.815C86 115.091 86.2239 115.315 86.5 115.315C86.7761 115.315 87 115.091 87 114.815V110.815Z" fill="white"/>
<path d="M118.541 187.907V195.276L114.956 198.166L92.95 199.204L85.2059 197.039C85.2059 197.039 81.9159 193.116 83.8519 190.265C85.7879 187.414 92.9519 185.637 92.9519 185.637L90.994 176.952L87.549 165.952L90.994 154.6L94.4669 141.405V124.809C94.4669 124.809 96.36 112.984 98.843 112.515C101.326 112.046 111.129 101.515 111.129 101.515L110.145 98.339L107.023 96.339L102.012 92.359L95.9869 89.883L88.777 88.244L83.9769 85.457L80.1 82.177L78.438 76.077L82.068 70.626L86.934 71.426H92.908L102.008 76.076L110.142 82.825L117.742 94.073L119.449 99.305H123.559L128.159 88.241L138.332 78.686L148.657 73.246L156.742 70.624L163.467 73.246L165.467 77.593L163.467 82.825L156.191 86.891L145.483 89.88L138.332 94.073L132.27 101.507L141.498 105.36L148.657 115.016L151.024 125.335L152.239 138.352L156.401 158.352L157.348 173.424L152.239 186.299L160.554 189.299V195.868L155.137 199.201L129.622 198.163L126.388 191.288V187.905L118.541 187.907Z" fill="#F7D7DD"/>
<path d="M122.864 149.338C131.911 149.338 139.244 158.138 139.244 168.994C139.244 179.85 131.91 188.65 122.864 188.65C113.818 188.65 105.508 179.607 107.392 168.994C109.276 158.381 113.818 149.338 122.864 149.338Z" fill="white"/>
<path d="M93.235 187.605C91.5548 185.069 90.2336 182.313 89.309 179.415C85.048 167.623 87.178 160.415 89.475 153.04C90.947 148.126 92.425 143.212 92.585 136.167C92.585 136.167 92.585 135.841 92.751 127.484C92.728 121.889 94.2833 116.401 97.2383 111.65C100.193 106.899 104.428 103.077 109.457 100.624C105.196 93.905 100.122 91.289 87.177 88.339C81.77 87.027 78.001 83.918 77.182 79.823C76.8367 78.2547 76.9458 76.6205 77.4967 75.112C78.0475 73.6036 79.0173 72.2836 80.292 71.307C82.256 69.835 87.663 67.046 97.165 71.8C115.009 80.974 119.769 93.092 120.909 97.187H122.709C123.854 92.926 128.442 80.973 146.46 71.798C155.96 66.884 161.528 69.834 163.333 71.305C164.639 72.2551 165.632 73.5725 166.185 75.0892C166.739 76.6059 166.829 78.2532 166.443 79.821C165.624 83.921 161.855 87.192 156.448 88.337C143.67 91.287 138.923 93.744 134.828 99.97L135.154 100.136C140.526 102.496 145.092 106.372 148.295 111.288C151.497 116.205 153.195 121.949 153.182 127.816C153.675 136.332 153.675 136.332 153.675 136.499C153.841 138.299 154.168 140.268 154.494 142.232L154.66 142.885C155.297 146.475 156.117 150.03 157.117 153.536C158.589 158.943 159.9 163.198 158.917 172.373C158.164 177.741 156.385 182.913 153.677 187.608L150.727 185.808C153.296 181.624 154.917 176.929 155.475 172.051C156.46 163.535 155.309 159.766 153.837 154.526C152.757 150.921 151.882 147.257 151.214 143.553L151.048 142.9C150.722 140.769 150.395 138.639 150.229 136.674L149.576 127.825C149.59 122.653 148.095 117.589 145.272 113.255C142.45 108.921 138.425 105.504 133.689 103.425L129.431 101.936L130.576 100.136C135.983 90.796 141.549 88.172 155.639 85.063C159.739 84.078 162.517 81.953 163.01 79.163C163.219 78.2327 163.162 77.2621 162.843 76.3632C162.525 75.4644 161.959 74.6739 161.21 74.083C158.427 71.952 153.346 72.283 147.939 75.068C127.957 85.222 125.826 99.312 125.659 99.468L125.493 100.94H117.951L117.785 99.468C117.785 99.302 115.494 85.219 95.505 75.068C90.098 72.285 85.184 71.958 82.234 74.083C81.447 74.641 80.8516 75.4285 80.5294 76.3379C80.2072 77.2473 80.1739 78.234 80.434 79.163C81.087 81.946 83.876 84.077 87.805 85.063C102.709 88.505 108.109 91.781 113.19 100.624L114.009 102.096L110.733 103.896C106.282 106.103 102.54 109.515 99.9339 113.744C97.3276 117.974 95.9614 122.85 95.991 127.818L96.017 136.334C95.8209 142.363 94.7165 148.327 92.741 154.026C90.45 161.564 88.812 167.456 92.575 178.27C93.4611 180.921 94.6702 183.453 96.175 185.808L93.235 187.605Z" fill="#F0355A"/>
<path d="M104.859 173.021H104.04C95.524 171.55 89.791 163.356 89.791 152.379H93.233C93.233 161.555 97.821 168.433 104.699 169.579C105.055 169.648 105.423 169.624 105.767 169.51C106.111 169.396 106.419 169.194 106.663 168.926C106.829 168.6 106.497 168.107 106.01 167.614C105.049 166.596 104.173 165.5 103.391 164.338L102.898 163.685C102.729 163.356 99.291 157.786 100.271 152.056L103.713 152.549C103.06 156.97 105.844 161.725 105.844 161.725L106.17 162.218C106.989 163.203 107.642 164.182 108.461 165.168C110.099 166.968 110.592 169.097 109.446 170.735C108.937 171.473 108.249 172.07 107.447 172.47C106.644 172.871 105.754 173.062 104.858 173.026L104.859 173.021Z" fill="#F0355A"/>
<path d="M141.714 173.022C140.818 173.058 139.928 172.867 139.126 172.466C138.323 172.066 137.636 171.469 137.126 170.731C136.141 169.093 136.473 166.962 138.111 165.164C138.953 164.244 139.719 163.257 140.402 162.214L140.895 161.561C140.895 161.561 143.678 156.973 143.026 152.552L146.468 152.059C147.453 157.792 144.011 163.359 143.845 163.525L143.352 164.178C142.534 165.324 141.714 166.31 140.73 167.459C140.237 167.952 139.911 168.604 140.077 168.771C140.32 169.04 140.629 169.242 140.973 169.356C141.317 169.471 141.685 169.494 142.041 169.424C148.919 168.279 153.507 161.4 153.507 152.224H156.949C156.949 163.197 151.216 171.387 142.7 172.866C142.386 172.985 142.051 173.039 141.715 173.026L141.714 173.022Z" fill="#F0355A"/>
<path d="M112.23 200.384H89.793C87.7855 200.333 85.8774 199.499 84.4756 198.061C83.0738 196.623 82.2892 194.695 82.2892 192.687C82.2892 190.678 83.0738 188.75 84.4756 187.312C85.8774 185.874 87.7855 185.04 89.793 184.989H104.041V188.431H89.793C88.6628 188.431 87.5789 188.88 86.7797 189.679C85.9805 190.478 85.5315 191.562 85.5315 192.693C85.5315 193.823 85.9805 194.907 86.7797 195.706C87.5789 196.505 88.6628 196.954 89.793 196.954H112.23C112.791 196.958 113.347 196.85 113.866 196.637C114.384 196.424 114.856 196.111 115.252 195.714C115.649 195.318 115.963 194.846 116.176 194.327C116.389 193.809 116.497 193.253 116.493 192.692V187.284H119.935V192.691C119.933 194.732 119.12 196.688 117.677 198.13C116.233 199.572 114.276 200.382 112.235 200.382L112.23 200.384Z" fill="#F0355A"/>
<path d="M155.48 200.382H133.201C132.189 200.384 131.187 200.185 130.253 199.799C129.318 199.413 128.468 198.846 127.753 198.13C127.037 197.415 126.47 196.565 126.084 195.631C125.698 194.696 125.499 193.694 125.501 192.682V187.938H128.943V192.682C128.939 193.243 129.046 193.798 129.259 194.317C129.471 194.836 129.785 195.307 130.181 195.704C130.577 196.101 131.048 196.415 131.566 196.628C132.085 196.842 132.64 196.95 133.201 196.947H155.645C156.775 196.947 157.859 196.498 158.658 195.699C159.458 194.9 159.907 193.816 159.907 192.686C159.907 191.555 159.458 190.471 158.658 189.672C157.859 188.873 156.775 188.424 155.645 188.424H141.389V184.982H155.639C156.651 184.98 157.653 185.179 158.588 185.565C159.522 185.951 160.372 186.518 161.087 187.234C161.803 187.949 162.37 188.799 162.756 189.733C163.143 190.668 163.341 191.67 163.339 192.682C163.304 194.741 162.46 196.703 160.99 198.144C159.52 199.585 157.541 200.389 155.482 200.382H155.48Z" fill="#F0355A"/>
<path d="M122.552 130.6C121.293 130.6 120.085 130.099 119.194 129.209C118.304 128.318 117.803 127.11 117.803 125.851H120.094C120.094 126.503 120.353 127.128 120.814 127.588C121.274 128.049 121.899 128.308 122.551 128.308C123.203 128.308 123.828 128.049 124.288 127.588C124.749 127.128 125.008 126.503 125.008 125.851H127.303C127.303 126.475 127.18 127.092 126.941 127.669C126.702 128.245 126.352 128.768 125.911 129.209C125.47 129.65 124.946 130 124.37 130.239C123.794 130.477 123.176 130.6 122.552 130.6Z" fill="#F0355A"/>
<path d="M119.443 136.007C118.319 135.987 117.247 135.532 116.452 134.737C115.657 133.942 115.201 132.87 115.181 131.746H117.472C117.472 132.225 117.662 132.684 118.001 133.022C118.339 133.36 118.798 133.551 119.277 133.551C119.755 133.551 120.214 133.36 120.553 133.022C120.891 132.684 121.081 132.225 121.081 131.746H123.371C123.44 132.294 123.388 132.849 123.22 133.375C123.051 133.9 122.77 134.383 122.396 134.788C122.022 135.194 121.564 135.513 121.054 135.724C120.544 135.934 119.994 136.031 119.443 136.007Z" fill="#F0355A"/>
<path d="M125.502 136.007C124.378 135.987 123.306 135.531 122.511 134.737C121.717 133.942 121.261 132.87 121.241 131.746H123.531C123.531 132.225 123.721 132.684 124.06 133.022C124.398 133.36 124.857 133.551 125.336 133.551C125.814 133.551 126.273 133.36 126.611 133.022C126.95 132.684 127.14 132.225 127.14 131.746H129.431C129.514 132.296 129.473 132.858 129.31 133.39C129.147 133.922 128.867 134.411 128.49 134.82C128.112 135.229 127.648 135.548 127.131 135.754C126.614 135.959 126.057 136.046 125.502 136.007Z" fill="#F0355A"/>
<path d="M121.406 129.454H123.697V131.911H121.406V129.454Z" fill="#F0355A"/>
<path d="M125.828 139.609H119.111V134.368H121.411V137.318H123.542V134.368H125.833L125.828 139.609Z" fill="#F0355A"/>
<path d="M123.045 189.243C114.036 189.243 106.498 182.043 104.534 171.718L106.825 171.225C108.634 180.234 115.341 186.786 123.034 186.786C130.405 186.786 136.957 180.886 139.088 172.21L141.379 172.703C138.934 182.524 131.561 189.244 123.045 189.244V189.243Z" fill="#F0355A"/>
<path d="M137.791 167.781C136.802 157.627 130.742 150.089 123.371 150.089C116.326 150.089 110.433 157.134 109.122 166.636L106.991 166.47C108.463 155.662 115.348 147.799 123.538 147.799C132.054 147.799 139.099 156.315 140.244 167.622L137.791 167.781Z" fill="#F0355A"/>
<path d="M108.303 118.807C107.298 118.807 106.316 119.105 105.481 119.663C104.645 120.221 103.994 121.015 103.61 121.943C103.225 122.871 103.125 123.893 103.321 124.878C103.517 125.863 104 126.769 104.711 127.479C105.421 128.19 106.327 128.673 107.312 128.869C108.297 129.065 109.319 128.965 110.247 128.58C111.175 128.196 111.969 127.545 112.527 126.709C113.085 125.874 113.383 124.892 113.383 123.887C113.376 122.542 112.839 121.253 111.888 120.302C110.937 119.351 109.648 118.814 108.303 118.807ZM107.81 124.54C107.519 124.54 107.234 124.454 106.992 124.292C106.75 124.13 106.561 123.9 106.45 123.631C106.339 123.362 106.31 123.066 106.366 122.781C106.423 122.495 106.563 122.233 106.769 122.027C106.975 121.821 107.237 121.681 107.523 121.624C107.808 121.567 108.104 121.597 108.373 121.708C108.642 121.819 108.872 122.008 109.034 122.25C109.196 122.492 109.282 122.777 109.282 123.068C109.283 123.262 109.246 123.454 109.172 123.633C109.099 123.812 108.991 123.975 108.854 124.112C108.717 124.249 108.554 124.357 108.375 124.431C108.196 124.505 108.004 124.542 107.81 124.541V124.54Z" fill="#F0355A"/>
<path d="M136.308 118.807C134.961 118.807 133.668 119.342 132.716 120.295C131.763 121.248 131.228 122.54 131.228 123.888C131.228 125.235 131.763 126.527 132.716 127.48C133.668 128.433 134.961 128.968 136.308 128.968C136.975 128.968 137.636 128.837 138.252 128.581C138.869 128.326 139.429 127.952 139.9 127.48C140.372 127.008 140.746 126.448 141.002 125.832C141.257 125.215 141.389 124.555 141.389 123.888C141.389 123.22 141.257 122.56 141.002 121.943C140.746 121.327 140.372 120.767 139.9 120.295C139.429 119.823 138.869 119.449 138.252 119.194C137.636 118.938 136.975 118.807 136.308 118.807ZM135.655 124.54C135.364 124.539 135.08 124.452 134.838 124.29C134.597 124.128 134.409 123.897 134.298 123.628C134.187 123.359 134.159 123.063 134.216 122.778C134.273 122.493 134.414 122.231 134.62 122.025C134.826 121.82 135.088 121.68 135.374 121.624C135.659 121.568 135.955 121.597 136.224 121.709C136.493 121.82 136.722 122.009 136.884 122.251C137.045 122.493 137.131 122.778 137.131 123.069C137.132 123.263 137.095 123.455 137.021 123.635C136.947 123.814 136.838 123.977 136.701 124.114C136.564 124.251 136.4 124.359 136.221 124.432C136.041 124.506 135.849 124.543 135.655 124.541V124.54Z" fill="#F0355A"/>
<path d="M111.738 115.532H106.658C106.354 115.532 106.063 115.411 105.848 115.197C105.633 114.982 105.513 114.69 105.513 114.387C105.513 114.083 105.633 113.791 105.848 113.577C106.063 113.362 106.354 113.241 106.658 113.241H111.738C112.042 113.241 112.333 113.362 112.548 113.577C112.763 113.791 112.884 114.083 112.884 114.387C112.884 114.69 112.763 114.982 112.548 115.197C112.333 115.411 112.042 115.532 111.738 115.532Z" fill="#F0355A"/>
<path d="M137.127 115.532H132.047C131.743 115.532 131.452 115.411 131.237 115.197C131.022 114.982 130.902 114.69 130.902 114.387C130.902 114.083 131.022 113.791 131.237 113.577C131.452 113.362 131.743 113.241 132.047 113.241H137.127C137.431 113.241 137.722 113.362 137.937 113.577C138.152 113.791 138.273 114.083 138.273 114.387C138.273 114.69 138.152 114.982 137.937 115.197C137.722 115.411 137.431 115.532 137.127 115.532Z" fill="#F0355A"/>
<path d="M209.893 197.832C207.809 199.023 200.34 199.023 197.469 199.023C196.489 199.023 195.489 199.017 194.484 199.006C195.97 194.973 197.154 190.835 198.025 186.626L201.09 184.61C201.204 184.535 201.283 184.418 201.311 184.284C201.338 184.15 201.312 184.011 201.237 183.897C201.161 183.784 201.044 183.704 200.911 183.677C200.777 183.649 200.638 183.676 200.524 183.751L198.312 185.205C198.863 182.389 199.091 180.558 199.097 180.518C199.11 180.384 199.07 180.251 198.986 180.147C198.902 180.042 198.78 179.975 198.647 179.958C198.514 179.942 198.379 179.978 198.273 180.059C198.166 180.141 198.095 180.26 198.075 180.393C197.36 185.443 196.227 190.424 194.687 195.286L192.956 193.035C192.872 192.929 192.75 192.861 192.616 192.844C192.482 192.827 192.346 192.864 192.239 192.947C192.132 193.029 192.061 193.15 192.043 193.284C192.024 193.418 192.059 193.553 192.139 193.662L194.297 196.462C194.012 197.302 193.708 198.144 193.385 198.989L190.915 198.957C188.785 198.927 186.775 198.9 184.888 198.9C183.74 198.9 182.751 198.911 181.873 198.932C180.573 198.964 179.302 198.993 178.073 199.016C176.764 197.316 174.205 193.116 174.18 193.075C174.109 192.958 173.994 192.875 173.862 192.842C173.729 192.81 173.589 192.832 173.472 192.903C173.355 192.974 173.272 193.089 173.239 193.221C173.207 193.354 173.229 193.494 173.3 193.611C173.351 193.691 173.9 194.588 174.6 195.705H172.837C172.7 195.705 172.569 195.759 172.473 195.856C172.376 195.952 172.322 196.083 172.322 196.22C172.322 196.357 172.376 196.488 172.473 196.584C172.569 196.681 172.7 196.735 172.837 196.735H175.256C175.777 197.544 176.329 198.371 176.804 199.035C175.833 199.05 174.898 199.058 174.013 199.058C167.28 199.058 166.248 198.484 166.132 198.22C166.159 198.104 168.959 186.612 176.937 186.612C178.951 186.682 180.917 187.252 182.656 188.271C182.729 188.31 182.81 188.332 182.892 188.333C182.975 188.335 183.057 188.317 183.131 188.28C183.205 188.243 183.269 188.189 183.318 188.123C183.367 188.056 183.399 187.979 183.412 187.897C184.592 180.197 191.312 173.444 197.802 173.444C199.009 173.442 200.204 173.689 201.312 174.168C202.42 174.647 203.417 175.348 204.243 176.229C206.89 178.908 210.007 184.829 209.893 197.822V197.832Z" fill="#8CB1FC"/>
<path d="M174.017 199.202C170.55 199.202 166.347 199.042 166.012 198.284C166 198.258 165.997 198.228 166.004 198.2C166.031 198.082 168.865 186.489 176.94 186.489C178.977 186.558 180.966 187.132 182.725 188.162C182.778 188.19 182.838 188.206 182.898 188.207C182.959 188.208 183.019 188.195 183.073 188.168C183.128 188.141 183.175 188.101 183.211 188.052C183.247 188.003 183.271 187.945 183.28 187.885C184.469 180.124 191.256 173.318 197.803 173.318C199.028 173.316 200.241 173.565 201.366 174.051C202.491 174.537 203.504 175.249 204.342 176.143C207 178.835 210.142 184.78 210.028 197.831C210.028 197.855 210.021 197.878 210.009 197.898C209.997 197.918 209.98 197.935 209.96 197.947C207.845 199.157 200.308 199.157 197.468 199.157C196.488 199.157 195.488 199.151 194.481 199.14C194.459 199.14 194.438 199.134 194.419 199.124C194.399 199.113 194.383 199.098 194.371 199.08C194.359 199.062 194.351 199.042 194.348 199.02C194.346 198.998 194.348 198.976 194.356 198.956C195.837 194.928 197.019 190.797 197.892 186.595C197.895 186.578 197.902 186.562 197.912 186.547C197.922 186.533 197.934 186.521 197.949 186.511L201.014 184.495C201.098 184.44 201.157 184.353 201.177 184.254C201.197 184.156 201.177 184.053 201.122 183.969C201.065 183.887 200.979 183.829 200.881 183.809C200.783 183.789 200.681 183.808 200.596 183.861L198.386 185.316C198.364 185.33 198.338 185.338 198.311 185.338C198.284 185.338 198.258 185.33 198.236 185.316C198.214 185.301 198.197 185.28 198.187 185.256C198.177 185.232 198.174 185.205 198.179 185.179C198.709 182.47 198.937 180.695 198.962 180.503C198.974 180.403 198.946 180.302 198.884 180.223C198.822 180.143 198.731 180.092 198.631 180.079C198.581 180.072 198.531 180.074 198.482 180.087C198.434 180.1 198.388 180.123 198.349 180.154C198.309 180.185 198.276 180.223 198.252 180.267C198.228 180.311 198.214 180.36 198.209 180.41C197.492 185.468 196.357 190.458 194.814 195.328C194.806 195.352 194.792 195.373 194.774 195.389C194.755 195.405 194.732 195.416 194.708 195.421C194.684 195.426 194.658 195.423 194.635 195.414C194.612 195.405 194.592 195.39 194.577 195.37L192.846 193.122C192.783 193.044 192.693 192.994 192.594 192.981C192.495 192.968 192.395 192.993 192.314 193.052C192.235 193.114 192.183 193.204 192.17 193.304C192.157 193.403 192.183 193.504 192.244 193.584L194.402 196.384C194.416 196.401 194.425 196.422 194.428 196.444C194.432 196.466 194.43 196.488 194.423 196.509C194.132 197.368 193.823 198.219 193.511 199.042C193.501 199.067 193.483 199.089 193.461 199.105C193.438 199.12 193.411 199.129 193.384 199.129L190.914 199.097C188.896 199.07 186.808 199.04 184.889 199.04C183.749 199.04 182.763 199.051 181.876 199.072C180.576 199.104 179.305 199.133 178.076 199.156C178.055 199.157 178.033 199.153 178.014 199.144C177.995 199.134 177.978 199.12 177.966 199.103C176.651 197.395 174.088 193.19 174.066 193.149C174.012 193.065 173.928 193.005 173.831 192.981C173.734 192.957 173.632 192.972 173.545 193.022C173.502 193.048 173.465 193.082 173.436 193.122C173.406 193.162 173.385 193.208 173.373 193.256C173.361 193.305 173.359 193.355 173.367 193.404C173.375 193.453 173.392 193.501 173.418 193.543C173.5 193.678 174.034 194.552 174.718 195.635C174.73 195.656 174.736 195.68 174.736 195.704C174.736 195.728 174.73 195.751 174.718 195.772C174.706 195.793 174.689 195.811 174.668 195.823C174.648 195.835 174.624 195.842 174.6 195.842H172.836C172.735 195.842 172.639 195.882 172.567 195.953C172.496 196.025 172.456 196.121 172.456 196.222C172.456 196.323 172.496 196.419 172.567 196.491C172.639 196.562 172.735 196.602 172.836 196.602H175.255C175.278 196.602 175.3 196.608 175.32 196.618C175.34 196.629 175.357 196.644 175.369 196.663C175.975 197.6 176.496 198.375 176.914 198.963C176.928 198.983 176.937 199.007 176.938 199.031C176.94 199.056 176.935 199.08 176.924 199.102C176.913 199.124 176.896 199.142 176.875 199.155C176.855 199.169 176.831 199.176 176.806 199.176C175.839 199.189 174.906 199.197 174.017 199.197V199.202ZM166.282 198.202C166.432 198.379 167.43 198.928 174.019 198.928C174.819 198.928 175.672 198.922 176.55 198.909C176.166 198.362 175.71 197.68 175.186 196.872H172.839C172.754 196.872 172.669 196.855 172.59 196.823C172.511 196.79 172.44 196.742 172.379 196.682C172.319 196.621 172.271 196.55 172.239 196.471C172.206 196.392 172.189 196.307 172.189 196.222C172.189 196.137 172.206 196.052 172.239 195.973C172.271 195.894 172.319 195.823 172.379 195.762C172.44 195.702 172.511 195.654 172.59 195.621C172.669 195.589 172.754 195.572 172.839 195.572H174.357C173.734 194.586 173.257 193.809 173.189 193.693C173.098 193.546 173.069 193.368 173.108 193.199C173.148 193.031 173.253 192.884 173.4 192.793C173.548 192.707 173.724 192.682 173.89 192.722C174.056 192.763 174.201 192.866 174.293 193.01C174.318 193.05 176.818 197.156 178.138 198.885C179.348 198.862 180.598 198.832 181.871 198.803C182.76 198.782 183.748 198.771 184.89 198.771C186.811 198.771 188.899 198.801 190.919 198.828L193.294 198.86C193.587 198.092 193.872 197.296 194.147 196.493L192.032 193.746C191.928 193.609 191.882 193.437 191.904 193.266C191.926 193.095 192.014 192.94 192.15 192.834C192.288 192.732 192.46 192.688 192.63 192.71C192.8 192.732 192.954 192.819 193.062 192.952L194.637 194.998C196.134 190.222 197.24 185.332 197.943 180.376C197.968 180.208 198.057 180.056 198.192 179.953C198.327 179.85 198.497 179.804 198.665 179.825C198.834 179.846 198.987 179.931 199.094 180.064C199.2 180.196 199.25 180.365 199.233 180.534C199.21 180.724 198.997 182.377 198.507 184.917L200.449 183.64C200.594 183.549 200.769 183.517 200.936 183.552C201.104 183.587 201.252 183.685 201.349 183.826C201.443 183.97 201.477 184.146 201.442 184.314C201.407 184.483 201.307 184.631 201.163 184.726L198.144 186.711C197.282 190.844 196.123 194.91 194.677 198.876C195.616 198.884 196.552 198.891 197.468 198.891C200.257 198.891 207.613 198.891 209.757 197.753C209.857 184.853 206.765 178.984 204.147 176.335C203.334 175.467 202.352 174.775 201.26 174.303C200.169 173.831 198.992 173.588 197.803 173.59C191.378 173.59 184.718 180.29 183.546 187.929C183.531 188.032 183.49 188.13 183.429 188.214C183.368 188.298 183.287 188.366 183.194 188.413C183.101 188.459 182.998 188.482 182.894 188.48C182.79 188.479 182.688 188.452 182.596 188.402C180.877 187.392 178.933 186.827 176.94 186.757C169.352 186.757 166.496 197.357 166.28 198.206L166.282 198.202Z" fill="#8CB1FC"/>
</svg>
